<svg width="21" height="21" viewBox="0 0 21 21" fill="none" xmlns="http://www.w3.org/2000/svg">
<g clip-path="url(#clip0_1_145)">
<path fill-rule="evenodd" clip-rule="evenodd" d="M6.58993 20.1567C4.13462 19.0866 2.18297 17.0838 1.14767 14.5718C0.112373 12.0598 0.074488 9.23519 1.04191 6.69511C2.00933 4.15499 3.90633 2.09842 6.33193 0.959988C8.75756 -0.17845 11.5219 -0.30953 14.0405 0.594462C16.559 1.49845 18.6345 3.36667 19.8285 5.80427C21.0224 8.24189 21.2412 11.0579 20.4384 13.6571C19.6357 16.2563 17.8745 18.4351 15.527 19.7329C13.1794 21.0308 10.4293 21.346 7.85829 20.612C8.18756 19.7961 8.56329 18.9801 8.82146 18.1422C9.10359 17.3026 9.26765 16.4157 9.47945 15.6006C9.64406 15.7442 9.83173 15.9123 10.0196 16.0559C10.4661 16.4107 10.991 16.6486 11.5482 16.7489C12.1055 16.8492 12.6782 16.8087 13.2166 16.6311C14.387 16.3534 15.411 15.6337 16.0827 14.6166C17.2495 12.9329 17.7298 10.8521 17.4217 8.81388C17.3028 7.80828 16.9126 6.85624 16.2946 6.06384C15.6766 5.27144 14.8548 4.66992 13.9214 4.32633C12.5787 3.71778 11.0905 3.52481 9.6414 3.77136C8.19223 4.01792 6.846 4.69319 5.76918 5.7134C4.87372 6.52916 4.24332 7.60436 3.96226 8.79546C3.6812 9.98659 3.76266 11.2369 4.19603 12.3794C4.47836 13.1217 5.0232 13.7291 5.72276 14.0814C6.0984 14.2731 6.26323 14.2013 6.38075 13.7934C6.37959 13.7597 6.38743 13.7264 6.40376 13.6971C6.5133 13.4428 6.55162 13.1624 6.5142 12.8873C6.47679 12.6121 6.36506 12.3529 6.19183 12.1387C5.90568 11.6606 5.73536 11.1198 5.69465 10.5611C5.65393 10.0023 5.74398 9.44173 5.95766 8.92566C6.25273 7.92479 6.8544 7.04699 7.67448 6.42119C8.4945 5.79539 9.48982 5.45466 10.5136 5.44906C11.0909 5.44167 11.6668 5.50607 12.2289 5.64077C13.0041 5.80873 13.7016 6.23801 14.209 6.85956C14.7165 7.48112 15.0042 8.25886 15.0263 9.06763C15.1358 10.4266 14.893 11.7912 14.3222 13.024C14.044 13.65 13.6157 14.1944 13.0769 14.6069C12.825 14.7892 12.5371 14.9136 12.2335 14.9715C11.93 15.0294 11.6178 15.0194 11.3184 14.9422C11.1164 14.8945 10.9261 14.806 10.7583 14.6818C10.5905 14.5577 10.4487 14.4004 10.3415 14.2194C10.2343 14.0383 10.1636 13.8372 10.1339 13.6278C10.1042 13.4184 10.1158 13.205 10.1682 13.0003C10.4032 12.0652 10.6845 11.1539 10.9195 10.2425C11.0152 9.84235 11.0548 9.43027 11.037 9.01867C11.0259 8.77844 10.9527 8.54542 10.8251 8.34326C10.6974 8.14109 10.5197 7.97694 10.3099 7.86747C10.1001 7.75797 9.86576 7.707 9.63048 7.71978C9.39519 7.73251 9.1674 7.8085 8.97013 7.94001C8.66812 8.12398 8.41008 8.37445 8.21499 8.67313C8.01986 8.97181 7.89253 9.31114 7.84226 9.66648C7.70872 10.3959 7.76555 11.1483 8.00696 11.8482C8.05012 12.0043 8.05856 12.1683 8.03118 12.328C7.58439 14.2462 7.13825 16.1399 6.7386 18.0345C6.65688 18.6065 6.61008 19.1831 6.59812 19.761L6.58993 20.1567Z" fill="black"/>
</g>
<defs>
<clipPath id="clip0_1_145">
<rect width="21" height="21" fill="white"/>
</clipPath>
</defs>
</svg>
